<svg xmlns="http://www.w3.org/2000/svg" xmlns:xlink="http://www.w3.org/1999/xlink" width="500" zoomAndPan="magnify" viewBox="0 0 375 374.999991" height="500" preserveAspectRatio="xMidYMid meet" version="1.0"><defs><clipPath id="348640e2b7"><path d="M 2.726562 8.046875 L 372.476562 8.046875 L 372.476562 328.296875 L 2.726562 328.296875 Z M 2.726562 8.046875 " clip-rule="nonzero"/></clipPath><clipPath id="d725405a69"><path d="M 82.363281 128.050781 L 287.113281 128.050781 L 287.113281 247.300781 L 82.363281 247.300781 Z M 82.363281 128.050781 " clip-rule="nonzero"/></clipPath></defs><g clip-path="url(#348640e2b7)"><path fill="#000053" d="M 280.039062 8.300781 L 95.164062 8.300781 L 2.726562 168.171875 L 95.164062 328.039062 L 280.039062 328.039062 L 372.476562 168.171875 Z M 270.871094 312.1875 L 104.332031 312.1875 L 21.066406 168.171875 L 104.332031 24.152344 L 270.871094 24.152344 L 354.136719 168.171875 Z M 270.871094 312.1875 " fill-opacity="1" fill-rule="nonzero"/></g><g clip-path="url(#d725405a69)"><path fill="#000053" d="M 286.9375 128.425781 C 286.875 128.3125 286.765625 128.179688 286.605469 128.179688 L 239.039062 128.089844 C 238.996094 128.089844 238.960938 128.097656 238.921875 128.121094 L 238.902344 128.132812 C 238.804688 128.1875 238.71875 128.300781 238.660156 128.4375 L 226.378906 160.460938 L 214.074219 193.960938 L 212.96875 190.96875 L 201.183594 158.894531 C 201.003906 158.402344 200.972656 157.859375 201.09375 157.359375 L 166.941406 157.359375 L 197.082031 235.960938 L 201.289062 246.929688 C 201.371094 247.140625 201.519531 247.277344 201.667969 247.277344 L 227 247.277344 C 227.148438 247.277344 227.296875 247.140625 227.378906 246.929688 L 261.855469 157.027344 C 262.152344 156.253906 262.789062 155.753906 263.480469 155.753906 L 276.636719 155.730469 C 276.785156 155.730469 276.9375 155.59375 277.015625 155.386719 L 286.988281 129.242188 C 287.109375 128.921875 287.042969 128.609375 286.9375 128.425781 Z M 130.433594 128.089844 C 130.585938 128.089844 130.734375 128.226562 130.816406 128.4375 L 172.386719 236.855469 L 175.976562 246.21875 C 176.097656 246.535156 176.03125 246.847656 175.929688 247.03125 C 175.867188 247.144531 175.761719 247.277344 175.597656 247.277344 L 142.472656 247.277344 C 142.324219 247.277344 142.175781 247.140625 142.09375 246.929688 L 107.617188 157.023438 C 107.324219 156.253906 106.683594 155.753906 105.992188 155.753906 L 92.835938 155.730469 C 92.6875 155.730469 92.539062 155.59375 92.457031 155.382812 L 82.484375 129.242188 C 82.367188 128.921875 82.433594 128.609375 82.535156 128.425781 C 82.597656 128.3125 82.707031 128.179688 82.867188 128.179688 L 97.011719 128.203125 L 97.183594 128.121094 C 97.226562 128.101562 97.265625 128.089844 97.308594 128.089844 L 130.433594 128.089844 " fill-opacity="1" fill-rule="nonzero"/></g></svg>