<svg xmlns="http://www.w3.org/2000/svg" xmlns:xlink="http://www.w3.org/1999/xlink" width="500" zoomAndPan="magnify" viewBox="0 0 375 374.999991" height="500" preserveAspectRatio="xMidYMid meet" version="1.0"><defs><clipPath id="b0a1f793ac"><path d="M 95.726562 119.21875 L 279.476562 119.21875 L 279.476562 226.46875 L 95.726562 226.46875 Z M 95.726562 119.21875 " clip-rule="nonzero"/></clipPath><clipPath id="849cde83dd"><path d="M 38.375 22.113281 L 336.875 22.113281 L 336.875 280.863281 L 38.375 280.863281 Z M 38.375 22.113281 " clip-rule="nonzero"/></clipPath></defs><g clip-path="url(#b0a1f793ac)"><path fill="#f8f4eb" d="M 279.320312 119.558594 C 279.265625 119.457031 279.167969 119.339844 279.019531 119.339844 L 236.335938 119.257812 C 236.296875 119.257812 236.261719 119.265625 236.230469 119.285156 L 236.210938 119.292969 C 236.125 119.34375 236.046875 119.445312 235.996094 119.570312 L 224.972656 148.371094 L 213.929688 178.5 L 212.9375 175.808594 L 202.359375 146.960938 C 202.199219 146.519531 202.171875 146.03125 202.28125 145.582031 L 171.632812 145.582031 L 198.679688 216.273438 L 202.453125 226.136719 C 202.527344 226.324219 202.660156 226.449219 202.796875 226.449219 L 225.53125 226.449219 C 225.664062 226.449219 225.796875 226.324219 225.871094 226.136719 L 256.808594 145.28125 C 257.074219 144.585938 257.648438 144.136719 258.269531 144.136719 L 270.078125 144.117188 C 270.210938 144.117188 270.34375 143.992188 270.414062 143.804688 L 279.367188 120.292969 C 279.472656 120.003906 279.414062 119.726562 279.320312 119.558594 Z M 138.871094 119.257812 C 139.003906 119.257812 139.136719 119.378906 139.210938 119.570312 L 176.515625 217.074219 L 179.742188 225.496094 C 179.851562 225.78125 179.789062 226.0625 179.699219 226.230469 C 179.640625 226.328125 179.546875 226.449219 179.402344 226.449219 L 149.671875 226.449219 C 149.539062 226.449219 149.40625 226.324219 149.332031 226.136719 L 118.394531 145.277344 C 118.128906 144.585938 117.554688 144.136719 116.933594 144.136719 L 105.128906 144.117188 C 104.992188 144.117188 104.859375 143.992188 104.785156 143.800781 L 95.835938 120.292969 C 95.730469 120.003906 95.789062 119.722656 95.882812 119.558594 C 95.9375 119.457031 96.035156 119.339844 96.179688 119.339844 L 108.875 119.355469 L 109.03125 119.285156 C 109.066406 119.265625 109.101562 119.257812 109.140625 119.257812 L 138.871094 119.257812 " fill-opacity="1" fill-rule="nonzero"/></g><g clip-path="url(#849cde83dd)"><path fill="#ffffff" d="M 262.25 22.316406 L 113 22.316406 L 38.375 151.488281 L 113 280.65625 L 262.25 280.65625 L 336.875 151.488281 Z M 254.847656 267.847656 L 120.402344 267.847656 L 53.179688 151.488281 L 120.402344 35.125 L 254.847656 35.125 L 322.070312 151.488281 Z M 254.847656 267.847656 " fill-opacity="1" fill-rule="nonzero"/></g></svg>